<!-- <?xml version="1.0" encoding="UTF-8" standalone="no"?><!DOCTYPE svg PUBLIC "-//W3C//DTD SVG 1.1//EN" "http://www.w3.org/Graphics/SVG/1.1/DTD/svg11.dtd"> -->
<svg width="100%" height="100%" viewBox="0 0 1024 768" version="1.1" xmlns="http://www.w3.org/2000/svg" xmlnsXlink="http://www.w3.org/1999/xlink" xmlSpace="preserve" xmlnsSerif="http://www.serif.com/" style="fill-rule:evenodd;clip-rule:evenodd;stroke-linecap:round;stroke-linejoin:round;stroke-miterlimit:1.5;"><g><g><path d="M832.149,74.572C832.149,74.572 697.635,169.979 493.172,169.979C288.708,169.979 165.12,74.572 165.12,74.572C165.12,74.572 156.425,248.49 165.12,378.851C186.834,704.414 294.27,758.874 511.831,758.874C703.197,758.874 808.513,714.603 832.149,378.851C841.291,248.972 832.149,74.572 832.149,74.572Z" style="stroke:black;stroke-width:4.17px;"/><g style="filter:url(#_Effect1);"><path d="M169.617,74.572C169.617,74.572 294.27,169.979 497.502,169.979C703.197,169.979 832.383,74.572 832.383,74.572L702.798,9.847L703.197,97.873C703.197,97.873 562.523,121.979 497.502,124.288C494.182,124.406 496.12,124.288 493.172,124.288C406.555,124.288 297.93,97.873 297.93,97.873L297.93,9.847L169.617,74.572Z" style="fill-opacity:0.8;"/></g></g></g><defs><filter id="_Effect1" filterUnits="userSpaceOnUse" x="151.446" y="-8.32386" width="699.107" height="196.473"><feGaussianBlur in="SourceGraphic" stdDeviation="3.02844"/></filter></defs></svg>
