<!-- <?xml version="1.0" encoding="UTF-8" standalone="no"?><!DOCTYPE svg PUBLIC "-//W3C//DTD SVG 1.1//EN" "http://www.w3.org/Graphics/SVG/1.1/DTD/svg11.dtd"> -->
<svg width="100%" height="100%" viewBox="0 0 1024 768" version="1.1" xmlns="http://www.w3.org/2000/svg" xmlnsXlink="http://www.w3.org/1999/xlink" xmlSpace="preserve" xmlnsSerif="http://www.serif.com/" style="fill-rule:evenodd;clip-rule:evenodd;stroke-linecap:round;stroke-linejoin:round;stroke-miterlimit:1.5;"><g><g><g><g style="filter:url(#_Effect1);"><path d="M271.636,118.764c0,-0 2.404,59.2 235.176,59.2c235.594,-0 237.099,-59.2 237.099,-59.2l-237.099,-109.224l-235.176,109.224Z" style="fill-opacity:0.5;"/></g><path d="M507.55,80.619l-76.585,79.746l153.17,-0l-76.585,-79.746Z"/><path d="M896.038,56.164c-0,0 -154.334,106.174 -392.903,106.174c-229.798,0 -380.161,-106.957 -380.161,-106.957l-0,582.638c-0,-0 154.996,118.099 380.161,118.099c243.201,0 392.903,-118.099 392.903,-118.099l-0,-581.855Z" style="stroke:black;stroke-width:4.17px;"/></g></g></g><defs><filter id="_Effect1" filterUnits="userSpaceOnUse" x="253.466" y="-8.63093" width="508.616" height="204.765"><feGaussianBlur in="SourceGraphic" stdDeviation="3.02844"/></filter></defs></svg>
