<svg width="100%" height="100%" viewBox="0 0 1024 768" version="1.1" xmlns="http://www.w3.org/2000/svg" xmlnsXlink="http://www.w3.org/1999/xlink" xmlSpace="preserve" xmlnsSerif="http://www.serif.com/" style="fill-rule:evenodd;clip-rule:evenodd;stroke-linecap:round;stroke-linejoin:round;stroke-miterlimit:1.5;">
    <g transform="matrix(-0.63498,0,0,1.42991,1429.78,-4904.44)">
        <path d="M2054.82,3554.66C2054.82,3554.66 2061.19,3625.77 1800.65,3654.71C1592.72,3677.8 1417.29,3628.59 1417.29,3628.59L1417.29,3906.17C1417.29,3906.17 1597.1,3960.56 1800.65,3937.52C2003.98,3914.51 2054.82,3863.07 2054.82,3863.07L2054.82,3554.66Z" style="stroke:black;stroke-width:3.77px;"/>
    </g>
    <g transform="matrix(1.06956,0,0,1.06956,-878.955,-2609.67)">
        <path d="M1592.92,2494.69L1595.25,2497.8L1588.92,2502.56L1586.58,2499.44L1592.91,2494.69L1585.44,2495.99L1584.77,2492.16L1592.48,2490.81L1593.15,2494.65L1592.92,2494.69ZM1596.69,2491.86L1596.38,2490.13L1600.24,2489.46C1601.13,2489.3 1602,2489.78 1602.36,2490.61C1602.72,2491.43 1602.46,2492.4 1601.74,2492.94L1598.57,2495.31L1597.51,2493.89L1597.05,2493.97L1596.9,2493.08L1596.24,2492.2L1596.69,2491.86ZM1320.13,2704.16L1317.79,2701.04L1322.52,2697.49L1324.85,2700.61L1320.13,2704.16ZM1328.17,2698.12L1325.84,2695L1332.17,2690.25L1334.51,2693.37L1328.17,2698.12ZM1337.83,2690.88L1335.49,2687.76L1341.83,2683.01L1344.17,2686.12L1337.83,2690.88ZM1347.49,2683.63L1345.15,2680.52L1351.49,2675.76L1353.82,2678.88L1347.49,2683.63ZM1357.14,2676.39L1354.81,2673.27L1361.14,2668.52L1363.48,2671.64L1357.14,2676.39ZM1366.8,2669.15L1364.46,2666.03L1370.8,2661.28L1373.14,2664.39L1366.8,2669.15ZM1376.46,2661.9L1374.12,2658.79L1380.46,2654.04L1382.8,2657.15L1376.46,2661.9ZM1386.12,2654.66L1383.78,2651.54L1390.12,2646.79L1392.45,2649.91L1386.12,2654.66ZM1395.77,2647.42L1393.44,2644.3L1399.77,2639.55L1402.11,2642.67L1395.77,2647.42ZM1405.43,2640.17L1403.09,2637.06L1409.43,2632.31L1411.77,2635.42L1405.43,2640.17ZM1415.09,2632.93L1412.75,2629.82L1419.09,2625.06L1421.42,2628.18L1415.09,2632.93ZM1424.75,2625.69L1422.41,2622.57L1428.74,2617.82L1431.08,2620.94L1424.75,2625.69ZM1434.4,2618.45L1432.07,2615.33L1438.4,2610.58L1440.74,2613.69L1434.4,2618.45ZM1444.06,2611.2L1441.72,2608.09L1448.06,2603.33L1450.39,2606.45L1444.06,2611.2ZM1453.72,2603.96L1451.38,2600.84L1457.71,2596.09L1460.05,2599.21L1453.72,2603.96ZM1463.37,2596.72L1461.04,2593.6L1467.37,2588.85L1469.71,2591.96L1463.37,2596.72ZM1473.03,2589.47L1470.69,2586.36L1477.03,2581.6L1479.37,2584.72L1473.03,2589.47ZM1482.69,2582.23L1480.35,2579.11L1486.69,2574.36L1489.02,2577.48L1482.69,2582.23ZM1492.35,2574.99L1490.01,2571.87L1496.34,2567.12L1498.68,2570.24L1492.35,2574.99ZM1502,2567.74L1499.66,2564.63L1506,2559.88L1508.34,2562.99L1502,2567.74ZM1511.66,2560.5L1509.32,2557.38L1515.66,2552.63L1518,2555.75L1511.66,2560.5ZM1521.32,2553.26L1518.98,2550.14L1525.32,2545.39L1527.65,2548.51L1521.32,2553.26ZM1530.97,2546.01L1528.64,2542.9L1534.97,2538.15L1537.31,2541.26L1530.97,2546.01ZM1540.63,2538.77L1538.29,2535.66L1544.63,2530.9L1546.97,2534.02L1540.63,2538.77ZM1550.29,2531.53L1547.95,2528.41L1554.29,2523.66L1556.62,2526.78L1550.29,2531.53ZM1559.95,2524.28L1557.61,2521.17L1563.94,2516.42L1566.28,2519.53L1559.95,2524.28ZM1569.6,2517.04L1567.27,2513.93L1573.6,2509.17L1575.94,2512.29L1569.6,2517.04ZM1579.26,2509.8L1576.92,2506.68L1583.26,2501.93L1585.6,2505.05L1579.26,2509.8ZM1580.87,2492.84L1581.54,2496.67L1573.83,2498.02L1573.16,2494.18L1580.87,2492.84ZM1569.26,2494.86L1569.92,2498.7L1562.22,2500.04L1561.55,2496.2L1569.26,2494.86ZM1557.64,2496.88L1558.31,2500.72L1550.6,2502.07L1549.93,2498.23L1557.64,2496.88ZM1546.03,2498.91L1546.7,2502.75L1538.99,2504.09L1538.32,2500.25L1546.03,2498.91ZM1534.42,2500.93L1535.09,2504.77L1527.38,2506.11L1526.71,2502.28L1534.42,2500.93ZM1522.81,2502.96L1523.48,2506.79L1515.77,2508.14L1515.1,2504.3L1522.81,2502.96ZM1511.19,2504.98L1511.86,2508.82L1504.15,2510.16L1503.49,2506.32L1511.19,2504.98ZM1499.58,2507L1500.25,2510.84L1492.54,2512.19L1491.87,2508.35L1499.58,2507ZM1487.97,2509.03L1488.64,2512.87L1480.93,2514.21L1480.26,2510.37L1487.97,2509.03ZM1476.36,2511.05L1477.03,2514.89L1469.32,2516.23L1468.65,2512.4L1476.36,2511.05ZM1464.74,2513.08L1465.41,2516.91L1457.7,2518.26L1457.04,2514.42L1464.74,2513.08ZM1453.13,2515.1L1453.8,2518.94L1446.09,2520.28L1445.42,2516.44L1453.13,2515.1ZM1441.52,2517.12L1442.19,2520.96L1434.48,2522.31L1433.81,2518.47L1441.52,2517.12ZM1429.91,2519.15L1430.58,2522.99L1422.87,2524.33L1422.2,2520.49L1429.91,2519.15ZM1418.29,2521.17L1418.96,2525.01L1411.25,2526.36L1410.59,2522.52L1418.29,2521.17ZM1406.68,2523.2L1407.35,2527.03L1399.64,2528.38L1398.97,2524.54L1406.68,2523.2ZM1395.07,2525.22L1395.74,2529.06L1388.03,2530.4L1387.36,2526.57L1395.07,2525.22ZM1383.46,2527.24L1384.12,2531.08L1376.42,2532.43L1375.75,2528.59L1383.46,2527.24ZM1371.84,2529.27L1372.51,2533.11L1364.8,2534.45L1364.13,2530.61L1371.84,2529.27ZM1360.23,2531.29L1360.9,2535.13L1353.19,2536.47L1352.53,2532.64L1360.23,2531.29ZM1348.62,2533.32L1349.29,2537.16L1341.58,2538.5L1340.91,2534.66L1348.62,2533.32ZM1337.01,2535.34L1337.68,2539.18L1329.97,2540.52L1329.3,2536.68L1337.01,2535.34ZM1325.4,2537.37L1326.07,2541.2L1318.36,2542.55L1317.69,2538.71L1325.4,2537.37ZM1313.78,2539.39L1314.45,2543.23L1306.74,2544.57L1306.07,2540.73L1313.78,2539.39ZM1302.17,2541.41L1302.84,2545.25L1295.13,2546.6L1294.46,2542.76L1302.17,2541.41ZM1290.56,2543.44L1291.23,2547.28L1283.52,2548.62L1282.85,2544.78L1290.56,2543.44ZM1278.94,2545.46L1279.61,2549.3L1271.91,2550.64L1271.24,2546.81L1278.94,2545.46ZM1267.33,2547.49L1268,2551.32L1260.29,2552.67L1259.62,2548.83L1267.33,2547.49ZM1255.72,2549.51L1256.39,2553.35L1248.68,2554.69L1248.01,2550.85L1255.72,2549.51ZM1244.11,2551.53L1244.78,2555.37L1237.07,2556.72L1236.4,2552.88L1244.11,2551.53ZM1232.5,2553.56L1233.16,2557.4L1225.46,2558.74L1224.79,2554.9L1232.5,2553.56ZM1220.88,2555.58L1221.55,2559.42L1213.84,2560.76L1213.17,2556.93L1220.88,2555.58ZM1209.27,2557.61L1209.94,2561.44L1202.23,2562.79L1201.56,2558.95L1209.27,2557.61ZM1197.66,2559.63L1198.33,2563.47L1190.62,2564.81L1189.95,2560.97L1197.66,2559.63ZM1186.05,2561.66L1186.71,2565.49L1179.01,2566.84L1178.34,2563L1186.05,2561.66ZM1174.43,2563.68L1175.1,2567.52L1167.39,2568.86L1166.73,2565.02L1174.43,2563.68ZM1162.82,2565.7L1163.49,2569.54L1155.78,2570.88L1155.11,2567.05L1162.82,2565.7ZM1151.21,2567.73L1151.88,2571.57L1144.17,2572.91L1143.5,2569.07L1151.21,2567.73ZM1139.6,2569.75L1140.27,2573.59L1132.56,2574.93L1131.89,2571.1L1139.6,2569.75ZM1127.98,2571.78L1128.65,2575.61L1120.94,2576.96L1120.27,2573.12L1127.98,2571.78ZM1116.37,2573.8L1117.04,2577.64L1109.33,2578.98L1108.66,2575.14L1116.37,2573.8ZM1104.76,2575.82L1105.43,2579.66L1097.72,2581.01L1097.05,2577.17L1104.76,2575.82ZM1093.15,2577.85L1093.82,2581.68L1086.11,2583.03L1085.44,2579.19L1093.15,2577.85ZM1081.53,2579.87L1082.2,2583.71L1074.49,2585.05L1073.83,2581.22L1081.53,2579.87ZM1069.92,2581.9L1070.59,2585.73L1062.88,2587.08L1062.21,2583.24L1069.92,2581.9ZM1058.31,2583.92L1058.98,2587.76L1051.27,2589.1L1050.6,2585.26L1058.31,2583.92ZM1046.7,2585.94L1047.37,2589.78L1039.66,2591.13L1038.99,2587.29L1046.7,2585.94ZM1035.08,2587.97L1035.75,2591.81L1028.04,2593.15L1027.38,2589.31L1035.08,2587.97ZM1023.47,2589.99L1024.14,2593.83L1016.43,2595.17L1015.76,2591.34L1023.47,2589.99ZM1011.86,2592.02L1012.53,2595.85L1004.82,2597.2L1004.15,2593.36L1011.86,2592.02ZM1000.25,2594.04L1000.92,2597.88L993.207,2599.22L992.538,2595.38L1000.25,2594.04ZM988.634,2596.06L989.303,2599.9L981.595,2601.25L980.926,2597.41L988.634,2596.06ZM977.022,2598.09L977.691,2601.93L969.982,2603.27L969.313,2599.43L977.022,2598.09ZM965.409,2600.11L966.078,2603.95L958.37,2605.29L957.701,2601.46L965.409,2600.11ZM953.797,2602.14L954.466,2605.97L946.758,2607.32L946.089,2603.48L953.797,2602.14ZM942.185,2604.16L942.853,2608L937.08,2609.01L936.411,2605.17L942.185,2604.16Z" style="fill:rgb(61,58,57);"/>
    </g>
    <g transform="matrix(0.376519,0.751929,-0.751929,0.376519,2959.04,-1663.42)">
        <path d="M694.52,3175.49L758.31,3241.91L630.73,3241.91L694.52,3175.49Z"/>
    </g>
</svg>
