<!-- <?xml version="1.0" encoding="UTF-8" standalone="no"?><!DOCTYPE svg PUBLIC "-//W3C//DTD SVG 1.1//EN" "http://www.w3.org/Graphics/SVG/1.1/DTD/svg11.dtd"> -->
<svg width="100%" height="100%" viewBox="0 0 1024 768" version="1.1" xmlns="http://www.w3.org/2000/svg" xmlnsXlink="http://www.w3.org/1999/xlink" xmlSpace="preserve" xmlnsSerif="http://www.serif.com/" style="fill-rule:evenodd;clip-rule:evenodd;stroke-linecap:round;stroke-linejoin:round;stroke-miterlimit:1.5;"><g style="filter:url(#_Effect1);"><path d="M143.326,86.885C143.326,86.885 287.424,218.129 511.446,218.129C738.183,218.129 878.532,82.03 878.532,82.03L728.363,9.724L728.363,86.885C728.363,86.885 567.298,128.094 500.4,128.094C404.923,128.094 285.041,86.885 285.041,86.885L285.041,15.539L143.326,86.885Z" style="fill-opacity:0.5;"/></g><path d="M887.327,82.784C887.327,82.784 730,182.306 500.4,182.306C279.241,182.306 143.326,82.03 143.326,82.03L143.326,642.764C143.326,642.764 283.699,756.739 500.4,756.739C734.458,756.739 887.327,642.764 887.327,642.764L887.327,82.784Z" style="stroke:black;stroke-width:4.17px;"/><defs><filter id="_Effect1" filterUnits="userSpaceOnUse" x="125.155" y="-8.44708" width="771.547" height="244.747"><feGaussianBlur in="SourceGraphic" stdDeviation="3.02844"/></filter></defs></svg>
